<?xml version="1.0" encoding="UTF-8"?>
<svg width="77px" height="47px" viewBox="0 0 77 47" version="1.1" xmlns="http://www.w3.org/2000/svg" xmlns:xlink="http://www.w3.org/1999/xlink">
    <!-- Generator: Sketch 49.3 (51167) - http://www.bohemiancoding.com/sketch -->
    <title>logo-3d</title>
    <desc>Created with Sketch.</desc>
    <defs>
        <filter x="0.0%" y="0.0%" width="100.0%" height="100.0%" filterUnits="objectBoundingBox" id="filter-1">
            <feGaussianBlur stdDeviation="0" in="SourceGraphic"></feGaussianBlur>
        </filter>
        <filter x="0.0%" y="0.0%" width="100.0%" height="100.0%" filterUnits="objectBoundingBox" id="filter-2">
            <feGaussianBlur stdDeviation="0" in="SourceGraphic"></feGaussianBlur>
        </filter>
    </defs>
    <g id="Page-1" stroke="none" stroke-width="1" fill="none" fill-rule="evenodd">
        <g id="ben-logo?" transform="translate(-235.000000, -258.000000)">
            <g id="logo-3d" transform="translate(235.000000, 258.000000)">
                <path d="M46.0458291,1.396 L55.0698679,1.396 L55.0698679,28.654 L65.0564708,17.326 L76.1259584,17.326 L64.5150285,30.247 L76.4267597,46 L65.0564708,46 L55.1901884,31.486 L55.0698679,31.486 L55.0698679,46 L46.0458291,46 L46.0458291,1.396 Z M6.97174113,1.396 L15.9957799,1.396 L15.9957799,20.394 L16.1161004,20.394 C17.1588835,19.0173264 18.4924225,18.0438362 20.1167576,17.4735 C21.7410927,16.9031638 23.4957494,16.618 25.3807802,16.618 C27.4663463,16.618 29.3312957,17.0408291 30.9756843,17.8865 C32.6200729,18.7321709 34.0137716,19.8629929 35.1568223,21.279 C36.2998729,22.6950071 37.1822145,24.3174909 37.8038736,26.1465 C38.4255328,27.9755091 38.7363576,29.89299 38.7363576,31.899 C38.7363576,34.0623441 38.3954529,36.0486576 37.7136333,37.858 C37.0318136,39.6673424 36.0592325,41.2308267 34.7958607,42.5485 C33.532489,43.8661733 32.0184709,44.8888297 30.2537612,45.6165 C28.4890514,46.3441703 26.523836,46.708 24.3580559,46.708 C23.3152728,46.708 22.3326651,46.5703347 21.4102032,46.295 C20.4877413,46.0196653 19.6354795,45.6656688 18.8533922,45.233 C18.0713049,44.8003312 17.3894955,44.3185027 16.8079434,43.7875 C16.2263913,43.2564973 15.7551407,42.7353359 15.3941773,42.224 L15.2738568,42.224 L15.2738568,46 L6.97174113,46 L6.97174113,1.396 Z M15.2738568,31.663 C15.2738568,33.8263441 15.9055332,35.57666 17.168905,36.914 C18.4322767,38.25134 20.2069866,38.92 22.4930878,38.92 C24.7791891,38.92 26.553899,38.25134 27.8172707,36.914 C29.0806425,35.57666 29.7123189,33.8263441 29.7123189,31.663 C29.7123189,29.4996558 29.0806425,27.74934 27.8172707,26.412 C26.553899,25.07466 24.7791891,24.406 22.4930878,24.406 C20.2069866,24.406 18.4322767,25.07466 17.168905,26.412 C15.9055332,27.74934 15.2738568,29.4996558 15.2738568,31.663 Z" id="bk" fill="#000000" filter="url(#filter-1)"></path>
                <path d="M38.99,0.64 L47.99,0.64 L47.99,28.36 L57.95,16.84 L68.99,16.84 L57.41,29.98 L69.29,46 L57.95,46 L48.11,31.24 L47.99,31.24 L47.99,46 L38.99,46 L38.99,0.64 Z M0.02,0.64 L9.02,0.64 L9.02,19.96 L9.14,19.96 C10.1800052,18.559993 11.5099919,17.5700029 13.13,16.99 C14.7500081,16.4099971 16.4999906,16.12 18.38,16.12 C20.4600104,16.12 22.3199918,16.5499957 23.96,17.41 C25.6000082,18.2700043 26.9899943,19.4199928 28.13,20.86 C29.2700057,22.3000072 30.1499969,23.9499907 30.77,25.81 C31.3900031,27.6700093 31.7,29.6199898 31.7,31.66 C31.7,33.860011 31.3600034,35.8799908 30.68,37.72 C29.9999966,39.5600092 29.0300063,41.1499933 27.77,42.49 C26.5099937,43.8300067 25.0000088,44.8699963 23.24,45.61 C21.4799912,46.3500037 19.5200108,46.72 17.36,46.72 C16.3199948,46.72 15.3400046,46.5800014 14.42,46.3 C13.4999954,46.0199986 12.6500039,45.6600022 11.87,45.22 C11.0899961,44.7799978 10.4100029,44.2900027 9.83,43.75 C9.2499971,43.2099973 8.7800018,42.6800026 8.42,42.16 L8.3,42.16 L8.3,46 L0.02,46 L0.02,0.64 Z M8.3,31.42 C8.3,33.620011 8.9299937,35.3999932 10.19,36.76 C11.4500063,38.1200068 13.2199886,38.8 15.5,38.8 C17.7800114,38.8 19.5499937,38.1200068 20.81,36.76 C22.0700063,35.3999932 22.7,33.620011 22.7,31.42 C22.7,29.219989 22.0700063,27.4400068 20.81,26.08 C19.5499937,24.7199932 17.7800114,24.04 15.5,24.04 C13.2199886,24.04 11.4500063,24.7199932 10.19,26.08 C8.9299937,27.4400068 8.3,29.219989 8.3,31.42 Z" id="bk" fill="#F4F4F4" filter="url(#filter-2)"></path>
            </g>
        </g>
    </g>
</svg>