<svg width="187" height="16" viewBox="0 0 187 16" fill="none" xmlns="http://www.w3.org/2000/svg">
<path d="M4.22919 12H6.03719L8.40519 3.456H8.43719L10.7572 12H12.5652L16.1652 0.639999H14.1172L11.6692 8.816H11.6372L9.42919 0.639999H7.38119L5.15719 8.832H5.12519L2.69319 0.639999H0.629188L4.22919 12ZM19.8344 12.128C20.7304 12.128 21.5944 11.76 22.2184 11.008L22.2504 11.024V12H24.0424V4.192H22.2504V7.936C22.2504 9.616 21.2904 10.496 20.2504 10.496C19.1784 10.496 18.6984 10.016 18.6984 8.464V4.192H16.9064V8.944C16.9064 11.264 18.1064 12.128 19.8344 12.128ZM26.3164 12H28.1084V8.08C28.1084 6.544 28.9084 5.696 30.1244 5.696C31.1964 5.696 31.8204 6.224 31.8204 7.872V12H33.6124V7.408C33.6124 5.056 32.4604 4.08 30.7484 4.08C29.7244 4.08 28.7804 4.496 28.1404 5.264H28.1084V4.192H26.3164V12ZM39.1128 12.128C40.2328 12.128 41.0808 11.696 41.6568 10.944H41.6728V12H43.3848V0.223999H41.6088V5.152H41.5928C41.0008 4.448 40.1208 4.08 39.0968 4.08C36.9528 4.08 35.3208 5.776 35.3208 8.128C35.3208 10.544 36.9528 12.128 39.1128 12.128ZM39.3848 10.496C38.0728 10.496 37.1448 9.52 37.1448 8.144C37.1448 6.64 38.1528 5.696 39.4008 5.696C40.7448 5.696 41.6728 6.752 41.6728 8.144C41.6728 9.552 40.6648 10.496 39.3848 10.496ZM52.8587 8C52.8587 5.728 51.3707 4.08 49.1787 4.08C46.8907 4.08 45.2587 5.696 45.2587 8.096C45.2587 10.544 46.9387 12.128 49.3067 12.128C50.9867 12.128 51.9627 11.504 52.6187 10.656L51.3707 9.584C50.9707 10.08 50.3307 10.496 49.4027 10.496C48.1867 10.496 47.3387 9.824 47.1147 8.688H52.8107C52.8267 8.56 52.8587 8.288 52.8587 8ZM49.1627 5.696C50.1867 5.696 50.8267 6.336 51.0507 7.28H47.1467C47.4027 6.256 48.1707 5.696 49.1627 5.696ZM54.7071 12H56.4991V8.304C56.4991 7.024 57.2671 6.048 58.6271 6.048C58.7551 6.048 58.9631 6.064 59.1711 6.08V4.08H58.9471C58.0031 4.08 57.1391 4.544 56.5311 5.36H56.4991V4.192H54.7071V12ZM65.1814 12H67.1174V4.4H67.1334L70.2374 9.808H71.5014L74.6054 4.4H74.6374V12H76.5734V0.639999H74.6374L70.8934 7.44H70.8614L67.1174 0.639999H65.1814V12ZM82.7609 12.128C85.1609 12.128 86.8569 10.48 86.8569 8.112C86.8569 5.712 85.1609 4.08 82.7609 4.08C80.2969 4.08 78.6649 5.808 78.6649 8.112C78.6649 10.4 80.2969 12.128 82.7609 12.128ZM82.7609 10.496C81.4169 10.496 80.4889 9.44 80.4889 8.112C80.4889 6.752 81.4009 5.696 82.7609 5.696C84.0409 5.696 85.0329 6.672 85.0329 8.112C85.0329 9.52 84.0249 10.496 82.7609 10.496ZM92.9947 12.128C95.1707 12.128 96.7867 10.544 96.7867 8.128C96.7867 5.776 95.1707 4.08 93.0107 4.08C91.9867 4.08 91.1387 4.432 90.5307 5.12H90.5147V0.223999H88.7227V12H90.4347V10.96H90.4667C91.0427 11.712 91.8747 12.128 92.9947 12.128ZM92.7227 10.496C91.4427 10.496 90.4347 9.552 90.4347 8.144C90.4347 6.752 91.3627 5.696 92.7067 5.696C93.9547 5.696 94.9627 6.64 94.9627 8.144C94.9627 9.52 94.0347 10.496 92.7227 10.496ZM99.6682 3.04C100.34 3.04 100.884 2.496 100.884 1.84C100.884 1.2 100.34 0.655999 99.6682 0.655999C98.9962 0.655999 98.4682 1.2 98.4682 1.84C98.4682 2.496 98.9962 3.04 99.6682 3.04ZM98.7722 12H100.564V4.192H98.7722V12ZM103.132 12H104.924V0.223999H103.132V12ZM108.387 3.04C109.059 3.04 109.603 2.496 109.603 1.84C109.603 1.2 109.059 0.655999 108.387 0.655999C107.715 0.655999 107.187 1.2 107.187 1.84C107.187 2.496 107.715 3.04 108.387 3.04ZM107.491 12H109.283V4.192H107.491V12ZM114.058 12.128C115.082 12.128 115.578 11.92 116.042 11.664L115.578 10.112C115.162 10.336 114.73 10.448 114.426 10.448C113.914 10.448 113.674 10.16 113.674 9.36V5.712H115.962V4.192H113.674V1.408L111.882 1.6V4.192H110.922V5.712H111.882V9.536C111.882 11.28 112.714 12.128 114.058 12.128ZM118.51 15.168H120.366L124.654 4.192H122.814L120.814 9.424H120.782L118.638 4.192H116.718L119.918 11.568L118.51 15.168ZM134.042 12.128C135.866 12.128 137.962 11.072 137.962 8.72C137.962 6.528 136.394 6 134.442 5.232C133.066 4.704 132.298 4.416 132.314 3.584C132.33 2.736 133.034 2.256 133.914 2.256C134.682 2.256 135.594 2.656 136.522 3.424L137.674 1.904C136.522 0.992 135.258 0.511999 133.914 0.511999C131.946 0.511999 130.314 1.904 130.314 3.68C130.314 5.76 132.026 6.528 133.754 7.136C135.194 7.648 135.946 7.968 135.946 8.96C135.946 9.792 135.306 10.336 134.058 10.336C133.082 10.336 131.962 9.84 131.146 8.848L129.93 10.336C131.114 11.568 132.586 12.128 134.042 12.128ZM142.647 12.128C143.543 12.128 144.407 11.76 145.031 11.008L145.063 11.024V12H146.855V4.192H145.063V7.936C145.063 9.616 144.103 10.496 143.063 10.496C141.991 10.496 141.511 10.016 141.511 8.464V4.192H139.719V8.944C139.719 11.264 140.919 12.128 142.647 12.128ZM149.129 12H150.921V8.112C150.921 6.576 151.721 5.696 152.793 5.696C153.849 5.696 154.345 6.528 154.345 7.936V12H156.137V8.112C156.137 6.576 156.953 5.696 157.961 5.696C159.017 5.696 159.481 6.528 159.481 7.936V12H161.273V7.488C161.273 5.152 160.249 4.08 158.537 4.08C157.385 4.08 156.393 4.528 155.737 5.376H155.705C155.241 4.496 154.425 4.08 153.369 4.08C152.473 4.08 151.577 4.496 150.937 5.264H150.921V4.192H149.129V12ZM163.488 12H165.28V8.112C165.28 6.576 166.08 5.696 167.152 5.696C168.208 5.696 168.704 6.528 168.704 7.936V12H170.496V8.112C170.496 6.576 171.312 5.696 172.32 5.696C173.376 5.696 173.84 6.528 173.84 7.936V12H175.632V7.488C175.632 5.152 174.608 4.08 172.896 4.08C171.744 4.08 170.752 4.528 170.096 5.376H170.064C169.6 4.496 168.784 4.08 167.728 4.08C166.832 4.08 165.936 4.496 165.296 5.264H165.28V4.192H163.488V12ZM178.856 3.04C179.528 3.04 180.072 2.496 180.072 1.84C180.072 1.2 179.528 0.655999 178.856 0.655999C178.184 0.655999 177.656 1.2 177.656 1.84C177.656 2.496 178.184 3.04 178.856 3.04ZM177.96 12H179.752V4.192H177.96V12ZM184.527 12.128C185.551 12.128 186.047 11.92 186.511 11.664L186.047 10.112C185.631 10.336 185.199 10.448 184.895 10.448C184.383 10.448 184.143 10.16 184.143 9.36V5.712H186.431V4.192H184.143V1.408L182.351 1.6V4.192H181.391V5.712H182.351V9.536C182.351 11.28 183.183 12.128 184.527 12.128Z" fill="white"/>
</svg>
